<?xml version="1.0" encoding="UTF-8" standalone="no"?>
<svg
   xmlns:dc="http://purl.org/dc/elements/1.1/"
   xmlns:cc="http://creativecommons.org/ns#"
   xmlns:rdf="http://www.w3.org/1999/02/22-rdf-syntax-ns#"
   xmlns:svg="http://www.w3.org/2000/svg"
   xmlns="http://www.w3.org/2000/svg"
   id="svg250"
   version="1.1"
   viewBox="0 0 130 70"
   height="70mm"
   width="130mm">
  <defs
     id="defs244" />
  <metadata
     id="metadata247">
    <rdf:RDF>
      <cc:Work
         rdf:about="">
        <dc:format>image/svg+xml</dc:format>
        <dc:type
           rdf:resource="http://purl.org/dc/dcmitype/StillImage" />
        <dc:title></dc:title>
      </cc:Work>
    </rdf:RDF>
  </metadata>
  <g
     transform="translate(0,-227)"
     id="layer1">
    <g
       id="g220"
       transform="matrix(0.35277777,0,0,-0.35277777,-73.019404,775.8846)">
      <g
         transform="translate(423.0342,1539.1865)"
         id="g28">
        <path
           id="path30"
           style="fill:#002f6d;fill-opacity:1;fill-rule:nonzero;stroke:none"
           d="m 0,0 c -13.072,0 -24.813,-6.747 -32.909,-17.47 v 6.349 c 1.164,13.419 16.164,24.2 32.911,24.2 16.742,0 31.872,-10.51 32.906,-24.198 V -17.47 C 24.812,-6.747 13.071,0 0,0" />
      </g>
      <g
         transform="translate(282.4878,1539.3105)"
         id="g32">
        <path
           id="path34"
           style="fill:#002f6d;fill-opacity:1;fill-rule:nonzero;stroke:none"
           d="m 0,0 c 5.896,0 10.676,-4.78 10.676,-10.676 0,-5.896 -4.78,-10.677 -10.676,-10.677 -5.897,0 -10.677,4.781 -10.677,10.677 C -10.677,-4.78 -5.897,0 0,0" />
      </g>
      <path
         transform="translate(410.4346,1491.6807)"
         id="path38"
         style="fill:#002f6d;fill-opacity:1;fill-rule:nonzero;stroke:none"
         d="m 0,0 c -3.11,-3.254 -5.081,-7.764 -5.081,-12.804 l 0.001,-5.768 c -0.001,-5.038 1.97,-9.547 5.08,-12.801 3.133,-3.246 7.228,-5.132 11.725,-5.137 4.496,0.005 8.587,1.891 11.721,5.137 3.11,3.253 5.078,7.763 5.078,12.801 v 5.768 c 0,5.04 -1.968,9.55 -5.078,12.804 C 20.312,3.246 16.218,5.131 11.725,5.139 7.228,5.131 3.133,3.246 0,0 m 11.725,-54.599 c -9.723,-0.005 -18.551,4.181 -24.79,10.715 -6.257,6.53 -10.103,15.512 -10.103,25.312 l -0.001,5.768 c 0.001,9.803 3.847,18.783 10.104,25.315 6.239,6.531 15.067,10.718 24.79,10.713 9.716,0.005 18.545,-4.182 24.784,-10.713 6.257,-6.532 10.103,-15.512 10.103,-25.315 v -5.768 h 0.002 c -0.002,-9.8 -3.848,-18.782 -10.105,-25.312 -6.237,-6.526 -15.055,-10.715 -24.762,-10.715 h -0.018 z" />
      <g
         transform="translate(259.1445,1455.0151)"
         id="g40">
        <path
           id="path42"
           style="fill:#002f6d;fill-opacity:1;fill-rule:nonzero;stroke:none"
           d="m 0,0 c -3.014,-1.903 -7.218,-2.419 -10.439,-2.7 0,0 -9.707,-0.795 -12.452,3.71 -1.207,1.494 -1.946,4.332 -1.946,6.293 V 39.98 C -3.819,39.944 0.722,39.229 0.671,56.043 h -25.404 v 16.666 h -0.001 c -0.193,0.005 -0.383,0.026 -0.577,0.026 -9.727,0 -17.615,-7.866 -17.615,-16.391 V 7.303 c 0.033,-13.939 11.296,-25.2 25.234,-25.237 h 2.227 C -0.926,-17.745 0,-9.518 0,0" />
      </g>
      <g
         transform="translate(305.7305,1451.7715)"
         id="g44">
        <path
           id="path46"
           style="fill:#002f6d;fill-opacity:1;fill-rule:nonzero;stroke:none"
           d="m 0,0 c 0,0 -10.328,-1.724 -13.072,2.782 -1.208,1.493 -1.947,5.285 -1.949,7.245 v 36.525 2.301 c -0.781,5.351 -6.018,8.445 -17.508,8.344 -0.194,-0.002 -0.383,-0.012 -0.576,-0.018 h -0.001 V 46.552 6.221 c 0.033,-13.943 9.677,-20.383 19.308,-20.909 l 3.833,0.006 C -1.416,-14.284 0.054,-8.964 0,0" />
      </g>
      <g
         transform="translate(373.7549,1474.6816)"
         id="g48">
        <path
           id="path50"
           style="fill:#002f6d;fill-opacity:1;fill-rule:nonzero;stroke:none"
           d="m 0,0 c -2.833,1.321 -6.893,2.013 -12.406,1.964 -0.192,-0.002 -0.383,-0.013 -0.574,-0.02 h -0.003 V 1.415 -8.68 -19.509 -20.15 c -1.328,-1.977 -5.665,-1.662 -8.796,-1.662 -6.882,0 -13.019,2.869 -17.036,7.349 -3.035,3.391 -4.859,7.703 -4.859,12.403 0,0.102 0.01,0.202 0.011,0.303 0,0.065 -0.011,0.123 -0.011,0.186 v 5.766 c 0,2.036 0.36,3.982 0.991,5.805 0.897,2.592 2.364,4.928 4.291,6.858 1.04,1.041 2.2,2.14 3.451,3.161 1.689,1.377 3.554,2.596 5.537,3.324 0.385,0.141 0.774,0.271 1.169,0.369 0.01,0.005 0.022,0.009 0.033,0.012 3.153,0.917 6.653,1.428 10.345,1.428 7.158,0 13.611,-1.921 18.172,-4.998 C 1.547,19.351 2.699,18.472 3.74,17.5 v 0.708 1.925 3.067 c -0.474,8.571 -6.094,14.272 -13.221,16.244 -1.827,0.506 -7.556,0.781 -9.523,0.781 h -4.825 C -43.705,40.189 -61.726,24.073 -61.761,4.195 v -5.766 c 0.035,-19.875 16.152,-35.993 36.028,-36.029 h 6.799 c 1.382,0 2.735,0.121 4.048,0.336 2.961,0.487 7.621,1.494 10.043,2.918 5.991,3.518 10.104,8.576 9.946,18.322 v 7.344 2.3 C 4.698,-3.595 3.072,-1.43 0,0" />
      </g>
      <g
         transform="translate(429.3848,1417.0347)"
         id="g52">
        <path
           id="path54"
           style="fill:#d8292f;fill-opacity:1;fill-rule:evenodd;stroke:none"
           d="m 0,0 c 3.248,1.686 6.369,2.983 9.639,3.953 5.637,1.671 11.294,2.385 17.21,1.806 4.839,-0.471 9.502,-1.386 13.96,-3.265 4.382,-1.854 8.508,-4.157 12.208,-7.215 4.682,-3.87 8.59,-8.407 12.016,-13.393 2.097,-3.054 2.137,-3.042 4.215,0.058 4.302,6.41 10.066,11.227 16.613,15.159 6.945,4.17 14.429,7.047 22.307,8.814 2.904,0.652 5.886,1.012 8.885,1.249 2.389,0.188 4.766,0.307 7.151,0.265 5.163,-0.098 10.031,-1.274 14.013,-4.75 1.725,-1.511 2.861,-3.573 3.234,-5.913 1.008,-6.277 -2.065,-10.743 -6.708,-14.325 -4.752,-3.666 -10.409,-5.613 -15.927,-7.755 -7.225,-2.803 -14.732,-4.708 -22.233,-6.593 -2.05,-0.513 -4.145,-0.864 -6.24,-1.166 -1.942,-0.28 -3.837,1.357 -4.211,3.484 -0.244,1.375 1.295,3.446 2.856,3.892 7.72,2.195 15.24,4.972 22.602,8.158 4.495,1.948 9.041,3.875 12.919,6.999 0.357,0.291 0.765,0.537 1.06,0.88 0.732,0.854 1.72,1.725 1.247,2.973 -0.526,1.398 -1.82,1.723 -3.222,1.807 -4.532,0.261 -8.779,-1.066 -12.91,-2.57 -7.685,-2.793 -15.008,-6.372 -21.677,-11.179 -2.948,-2.123 -5.742,-4.362 -7.329,-7.78 -1.007,-2.165 -0.526,-4.936 1.1,-6.726 3.204,-3.518 7.416,-4.857 11.884,-5.585 9.191,-1.496 17.787,0.817 26.185,4.271 6.134,2.522 11.93,5.706 17.655,9.033 1.347,0.785 2.823,1.098 4.441,0.459 2.662,-1.047 3.454,-4.053 1.41,-6.096 -3.025,-3.02 -6.664,-5.221 -10.251,-7.503 -8.747,-5.563 -18.158,-9.552 -28.267,-11.726 -4.046,-0.872 -8.244,-1.355 -12.423,-1.121 -9.247,0.52 -17.695,3.263 -25.061,9.08 -5.272,4.163 -9.699,9.068 -13.753,14.402 -4.145,5.447 -9.073,10.119 -15.267,13.253 -6.773,3.43 -13.935,4.527 -21.447,3.438 -9.887,-1.433 -17.637,-6.431 -23.908,-14.035 -5.6,-6.791 -8.939,-14.52 -10.106,-23.224 -0.335,-2.494 -1.565,-3.793 -3.767,-4.305 -2.244,-0.519 -5.105,0.416 -6.26,2.103 -0.352,0.516 -0.58,1.095 -0.542,1.785 0.063,1.088 0.018,2.181 0.018,3.305 -4.917,-2.432 -9.86,-4.318 -15.215,-5.18 -3.243,-0.523 -6.464,-0.763 -9.712,-0.616 -5.409,0.249 -10.637,1.461 -15.65,3.51 -7.183,2.932 -13.245,7.491 -18.306,13.286 -5.645,6.453 -9.536,13.899 -11.63,22.258 -1.242,4.96 -1.748,9.972 -1.821,15.084 -0.035,2.461 1.665,4.34 4.149,4.654 3.169,0.398 5.922,-0.531 6.516,-4.785 1.322,-9.434 5.182,-17.67 11.684,-24.715 5.685,-6.164 12.547,-10.342 20.702,-11.944 6.542,-1.289 13.108,-0.669 19.416,1.817 3.928,1.552 7.382,3.809 10.668,6.425 4.98,3.962 8.548,9.022 11.33,14.611 2.367,4.759 3.919,9.828 4.482,15.18 0.194,1.826 1.654,2.742 3.402,3.237 2.374,0.673 5.321,-0.098 6.352,-2.072 C 0.466,3.656 0.623,1.929 0,0" />
      </g>
    </g>
  </g>
</svg>
